<?xml version="1.0" encoding="UTF-8" standalone="no"?>
<!-- Created with Inkscape (http://www.inkscape.org/) -->

<svg
   xmlns:dc="http://purl.org/dc/elements/1.1/"
   xmlns:cc="http://creativecommons.org/ns#"
   xmlns:rdf="http://www.w3.org/1999/02/22-rdf-syntax-ns#"
   xmlns:svg="http://www.w3.org/2000/svg"
   xmlns="http://www.w3.org/2000/svg"
   xmlns:sodipodi="http://sodipodi.sourceforge.net/DTD/sodipodi-0.dtd"
   xmlns:inkscape="http://www.inkscape.org/namespaces/inkscape"
   width="32"
   height="32"
   id="svg8485"
   version="1.1"
   inkscape:version="0.48.5 r10040"
   sodipodi:docname="gear.svg"
   inkscape:export-filename="/Users/jon/Desktop/delivery-bot/gear.png"
   inkscape:export-xdpi="90"
   inkscape:export-ydpi="90">
  <defs
     id="defs8487">
    <linearGradient
       id="linearGradient10149">
      <stop
         style="stop-color:#fef0ea;stop-opacity:1;"
         offset="0"
         id="stop10151" />
      <stop
         style="stop-color:#ed530e;stop-opacity:0;"
         offset="1"
         id="stop10153" />
    </linearGradient>
    <linearGradient
       id="linearGradient3912">
      <stop
         id="stop3914"
         offset="0"
         style="stop-color:#ffffff;stop-opacity:1;" />
      <stop
         id="stop3916"
         offset="1"
         style="stop-color:#f9f9f9;stop-opacity:0;" />
    </linearGradient>
  </defs>
  <sodipodi:namedview
     id="base"
     pagecolor="#ffffff"
     bordercolor="#666666"
     borderopacity="1.0"
     inkscape:pageopacity="0.0"
     inkscape:pageshadow="2"
     inkscape:zoom="1"
     inkscape:cx="32.795034"
     inkscape:cy="9.985604"
     inkscape:document-units="px"
     inkscape:current-layer="layer1"
     showgrid="false"
     inkscape:window-width="1440"
     inkscape:window-height="855"
     inkscape:window-x="0"
     inkscape:window-y="1"
     inkscape:window-maximized="1">
    <inkscape:grid
       type="xygrid"
       id="grid8493"
       empspacing="4"
       visible="true"
       enabled="true"
       snapvisiblegridlinesonly="true" />
  </sodipodi:namedview>
  <metadata
     id="metadata8490">
    <rdf:RDF>
      <cc:Work
         rdf:about="">
        <dc:format>image/svg+xml</dc:format>
        <dc:type
           rdf:resource="http://purl.org/dc/dcmitype/StillImage" />
        <dc:title></dc:title>
      </cc:Work>
    </rdf:RDF>
  </metadata>
  <g
     inkscape:label="Layer 1"
     inkscape:groupmode="layer"
     id="layer1"
     transform="translate(0,-1020.3622)">
    <g
       id="g10420"
       transform="matrix(0.8660254,-0.5,0.5,0.8660254,-516.03751,146.84621)">
      <path
         id="path10359"
         transform="translate(0,1020.3622)"
         d="M 16,4 C 9.372583,4 4,9.372583 4,16 4,22.627417 9.372583,28 16,28 22.627417,28 28,22.627417 28,16 28,9.372583 22.627417,4 16,4 z m 0,4 c 4.418278,0 8,3.581722 8,8 0,4.418278 -3.581722,8 -8,8 -4.418278,0 -8,-3.581722 -8,-8 0,-4.418278 3.581722,-8 8,-8 z"
         style="fill:#6894a5;fill-opacity:1;stroke:none"
         inkscape:connector-curvature="0" />
      <path
         id="path10363"
         transform="translate(0,1020.3622)"
         d="m 25,16 c 0,1.643441 -0.449386,3.173952 -1.21875,4.5 L 28.125,23 C 29.353757,20.871731 30,18.457513 30,16 l -5,0 z"
         style="fill:#6894a5;fill-opacity:1;stroke:#6894a5;stroke-linejoin:round;stroke-opacity:1"
         inkscape:connector-curvature="0" />
      <path
         id="path10365"
         transform="translate(0,1020.3622)"
         d="M 20.5,23.78125 C 19.173952,24.550614 17.643441,25 16,25 l 0,5 c 2.457513,0 4.871731,-0.646243 7,-1.875 l -2.5,-4.34375 z"
         style="fill:#6894a5;fill-opacity:1;stroke:#6894a5;stroke-width:1;stroke-linejoin:round;stroke-opacity:1"
         inkscape:connector-curvature="0" />
      <path
         id="path10367"
         transform="translate(0,1020.3622)"
         d="M 8.21875,20.5 3.875,23 C 5.1037566,25.128269 6.8717311,26.896243 9,28.125 l 2.5,-4.34375 C 10.141483,22.993047 9.0069529,21.858517 8.21875,20.5 z"
         style="fill:#6894a5;fill-opacity:1;stroke:#6894a5;stroke-width:1;stroke-linejoin:round;stroke-opacity:1"
         inkscape:connector-curvature="0" />
      <path
         id="path10369"
         transform="translate(0,1020.3622)"
         d="M 3.875,9 C 2.6462433,11.128269 2,13.542487 2,16 l 5,0 C 7,14.356559 7.4493857,12.826048 8.21875,11.5 L 3.875,9 z"
         style="fill:#6894a5;fill-opacity:1;stroke:#6894a5;stroke-linejoin:round;stroke-opacity:1"
         inkscape:connector-curvature="0" />
      <path
         id="path10371"
         transform="translate(0,1020.3622)"
         d="M 16,2 C 13.542487,2 11.128269,2.6462433 9,3.875 l 2.5,4.34375 C 12.826048,7.4493857 14.356559,7 16,7 l 0,-5 z"
         style="fill:#6894a5;fill-opacity:1;stroke:#6894a5;stroke-width:1;stroke-linejoin:round;stroke-opacity:1"
         inkscape:connector-curvature="0" />
      <path
         id="path10373"
         transform="translate(0,1020.3622)"
         d="m 23,3.875 -2.5,4.34375 c 1.358517,0.7882029 2.493047,1.922733 3.28125,3.28125 L 28.125,9 C 26.896243,6.871731 25.128269,5.1037567 23,3.875 z"
         style="fill:#6894a5;fill-opacity:1;stroke:#6894a5;stroke-width:1;stroke-linejoin:round;stroke-opacity:1"
         inkscape:connector-curvature="0" />
      <path
         id="rect10402"
         transform="translate(0,1020.3622)"
         d="m 16,7 c -0.554,0 -1,0.446 -1,1 l 0,4.15625 C 13.595855,12.518363 12.518356,13.595867 12.15625,15 L 8,15 c -0.554,0 -1,0.446 -1,1 0,0.554 0.446,1 1,1 l 4.15625,0 C 12.518356,18.404133 13.595855,19.481637 15,19.84375 L 15,24 c 0,0.554 0.446,1 1,1 0.554,0 1,-0.446 1,-1 l 0,-4.15625 C 18.404145,19.481637 19.481644,18.404133 19.84375,17 L 24,17 c 0.554,0 1,-0.446 1,-1 0,-0.554 -0.446,-1 -1,-1 l -4.15625,0 C 19.481644,13.595867 18.404145,12.518363 17,12.15625 L 17,8 C 17,7.446 16.554,7 16,7 z m 0,7 c 1.104569,0 2,0.8954 2,2 0,1.1046 -0.895431,2 -2,2 -1.104569,0 -2,-0.8954 -2,-2 0,-1.1046 0.895431,-2 2,-2 z"
         style="fill:#6894a5;fill-opacity:1;stroke:none"
         inkscape:connector-curvature="0" />
    </g>
  </g>
</svg>
